<?xml version="1.0" encoding="utf-8"?>
<!-- Generator: Adobe Illustrator 24.2.1, SVG Export Plug-In . SVG Version: 6.00 Build 0)  -->
<svg version="1.1" id="그룹_518" xmlns="http://www.w3.org/2000/svg" xmlns:xlink="http://www.w3.org/1999/xlink" x="0px" y="0px"
	 viewBox="0 0 100 20" style="enable-background:new 0 0 100 20;" xml:space="preserve">
<g id="그룹_517" transform="translate(0 0)">
	<path id="패스_461" class="st0" d="M3.2,12.2V1.8c0-1-0.8-1.8-1.8-1.8c0,0,0,0,0,0H0.6C0.3,0,0,0.3,0,0.6c0,0,0,0,0,0v11.6
		c0,3.9,3.2,7,7,7c0,0,0,0,0,0h3.8c0.3,0,0.6-0.3,0.6-0.6v-0.7c0-1-0.8-1.8-1.8-1.8c0,0,0,0,0,0H7C4.9,16.1,3.2,14.4,3.2,12.2z"/>
	<path id="패스_462" class="st0" d="M56.1,7.4v4.9c0,3.9,3.2,7,7,7c0,0,0,0,0,0h3c0.3,0,0.6-0.3,0.6-0.6c0,0,0,0,0,0v-0.8
		c0-1-0.8-1.8-1.8-1.8c0,0,0,0,0,0h-1.8c-2.1,0-3.9-1.7-3.9-3.8l0,0v-0.8h6.9c0.3,0,0.6-0.3,0.6-0.6c0,0,0,0,0,0v-2
		c0-0.3-0.3-0.6-0.6-0.6l0,0h-6.9V7.4c0-2.1,1.7-3.8,3.8-3.8h1.8c1,0,1.8-0.8,1.8-1.8c0,0,0,0,0,0V1c0-0.3-0.3-0.6-0.6-0.6h-3
		C59.2,0.3,56.1,3.5,56.1,7.4L56.1,7.4z"/>
	<path id="패스_463" class="st0" d="M20.5,0.3c-3.8,0-6.9,3.1-7,6.8l0,0c0,0,0,0.1,0,0.1s0,0.1,0,0.1v10.6c0,1,0.8,1.8,1.8,1.8
		c0,0,0,0,0,0h0.7c0.3,0,0.6-0.3,0.6-0.6V13c1.1,0.8,2.5,1.2,3.9,1.2h0.1c1,0,1.8-0.8,1.8-1.8c0,0,0,0,0,0v-0.7
		c0-0.3-0.3-0.6-0.6-0.6c0,0,0,0,0,0h-1.3c-2.1,0.1-3.8-1.6-3.8-3.7s1.6-3.8,3.7-3.8c0.1,0,0.1,0,0.2,0c2.2,0,3.9,1.8,3.9,3.9v10.5
		c0,1,0.8,1.8,1.8,1.8c0,0,0,0,0,0H27c0.3,0,0.6-0.3,0.6-0.6c0,0,0,0,0,0V7.4C27.6,3.5,24.5,0.3,20.5,0.3z"/>
	<path id="패스_464" class="st0" d="M86.1,0.3c-3.8,0-6.9,3.1-7,6.8l0,0c0,0,0,0.1,0,0.1s0,0.1,0,0.1v10.6c0,1,0.8,1.8,1.8,1.8
		c0,0,0,0,0,0h0.7c0.3,0,0.6-0.3,0.6-0.6V13c1.1,0.8,2.5,1.2,3.9,1.2h0.6c0.8,0,1.4-0.6,1.4-1.4c0,0,0,0,0,0v-1.2
		c0-0.3-0.3-0.6-0.6-0.6l0,0h-1.3c-2.1,0.1-3.8-1.6-3.8-3.6c-0.1-2.1,1.6-3.8,3.6-3.8c0.1,0,0.1,0,0.2,0c2.2,0,3.9,1.8,3.9,3.9v10.5
		c0,1,0.8,1.8,1.8,1.8c0,0,0,0,0,0h0.7c0.3,0,0.6-0.3,0.6-0.6V7.4C93.2,3.5,90,0.3,86.1,0.3z"/>
	<path id="패스_465" class="st0" d="M31.9,3.4h2.5v14.7c0,1,0.8,1.8,1.8,1.8c0,0,0,0,0,0h0.7c0.3,0,0.6-0.3,0.6-0.6V3.4h3.7
		c0.3,0,0.6-0.3,0.6-0.6c0,0,0,0,0,0v-2c0-0.3-0.3-0.6-0.6-0.6l0,0H30.7c-0.3,0-0.6,0.3-0.6,0.6v0.7C30,2.6,30.9,3.4,31.9,3.4
		C31.9,3.4,31.9,3.4,31.9,3.4z"/>
	<path id="패스_466" class="st0" d="M96.8,0.6v17.5c0,1,0.8,1.8,1.8,1.8l0,0h0.7c0.3,0,0.6-0.3,0.6-0.6V1.9c0-1-0.8-1.8-1.8-1.8
		c0,0,0,0,0,0h-0.7C97.1,0,96.8,0.3,96.8,0.6C96.8,0.6,96.8,0.6,96.8,0.6z"/>
	<path id="패스_467" class="st0" d="M43.3,3.4H47v14.7c0,1,0.8,1.8,1.8,1.8c0,0,0,0,0,0h0.7c0.3,0,0.6-0.3,0.6-0.6V3.4h2.5
		c1,0,1.8-0.8,1.8-1.8c0,0,0,0,0,0V0.9c0-0.3-0.3-0.6-0.6-0.6H43.3c-0.3,0-0.6,0.3-0.6,0.6c0,0,0,0,0,0v2
		C42.6,3.2,42.9,3.4,43.3,3.4C43.3,3.4,43.3,3.4,43.3,3.4z"/>
</g>
<path id="사각형_188" class="st0" d="M72.7,16.1L72.7,16.1c0.9,0,1.6,0.7,1.6,1.6l0,0c0,0.9-0.7,1.6-1.6,1.6l0,0
	c-0.9,0-1.6-0.7-1.6-1.6l0,0C71.1,16.8,71.9,16.1,72.7,16.1z"/>
</svg>
