<?xml version="1.0" standalone="no"?>
<!DOCTYPE svg PUBLIC "-//W3C//DTD SVG 20010904//EN"
 "http://www.w3.org/TR/2001/REC-SVG-20010904/DTD/svg10.dtd">
<svg version="1.0" xmlns="http://www.w3.org/2000/svg"
 width="1080.000000pt" height="1080.000000pt" viewBox="0 0 1080.000000 1080.000000"
 preserveAspectRatio="xMidYMid meet">

<g transform="translate(0.000000,1080.000000) scale(0.100000,-0.100000)"
fill="#000000" stroke="none">
<path d="M2955 6865 c-42 -15 -74 -48 -76 -80 -1 -11 -1 -186 1 -390 1 -203
-1 -367 -5 -364 -3 4 -10 35 -15 69 -14 101 -56 144 -140 144 -67 0 -117 -39
-126 -96 -5 -29 -9 -36 -16 -25 -15 28 -74 57 -114 57 -71 0 -125 -49 -127
-114 l-1 -32 -52 4 c-61 5 -100 -15 -120 -63 -11 -27 -11 -42 1 -91 7 -32 36
-169 64 -304 69 -331 82 -370 144 -432 l49 -49 -11 -182 c-6 -100 -14 -210
-17 -244 -5 -53 -3 -63 10 -63 9 0 16 1 16 3 0 1 7 114 15 250 l14 249 -47 47
c-26 26 -55 65 -65 87 -9 21 -46 179 -82 349 -36 171 -68 322 -72 337 -7 35
42 88 82 88 34 0 81 -24 89 -46 5 -12 10 -14 17 -7 8 8 8 25 1 59 -12 56 -3
86 34 110 62 41 129 13 169 -72 19 -40 31 -54 46 -54 14 0 19 5 16 13 -13 35
-18 126 -8 146 29 54 114 66 161 24 25 -24 32 -40 42 -105 l12 -78 33 0 33 0
0 393 0 394 23 21 c32 30 78 37 114 19 58 -31 55 -6 64 -575 8 -584 14 -702
35 -702 10 0 14 15 14 53 l0 52 22 -34 22 -33 -39 -202 c-21 -110 -41 -211
-46 -223 -10 -26 -47 -62 -75 -73 -25 -10 -30 -46 -40 -317 -6 -150 -5 -173 8
-173 13 0 16 36 24 223 l9 222 51 50 51 50 42 212 c22 117 41 218 41 226 0 8
-19 43 -41 78 l-42 64 -7 521 c-8 558 -8 558 -60 595 -36 25 -79 30 -125 14z"/>
<path d="M2950 6800 c-14 -14 -20 -33 -20 -65 l0 -45 75 0 75 0 0 45 c0 57
-25 85 -75 85 -22 0 -43 -8 -55 -20z m84 -16 c9 -8 16 -26 16 -40 0 -22 -4
-24 -45 -24 -41 0 -45 2 -45 24 0 27 24 56 45 56 7 0 21 -7 29 -16z"/>
<path d="M3467 6083 c-4 -3 -7 -114 -7 -245 l0 -238 25 0 25 0 2 184 3 185 96
-182 97 -182 51 -3 51 -3 -2 243 c-3 235 -4 243 -23 243 -19 0 -20 -8 -23
-175 l-3 -175 -80 155 c-111 213 -101 200 -158 200 -26 0 -51 -3 -54 -7z"/>
<path d="M2719 5948 c-29 -10 -58 -58 -35 -58 7 0 21 9 31 20 21 24 48 26 65
5 7 -8 19 -15 27 -15 14 0 14 3 1 22 -18 27 -54 38 -89 26z"/>
<path d="M3967 5950 c-85 -16 -131 -80 -131 -180 1 -67 17 -112 50 -141 63
-54 209 -51 273 5 80 71 63 252 -29 297 -43 21 -113 29 -163 19z m104 -49 c22
-18 24 -26 24 -124 0 -124 -12 -147 -76 -147 -61 0 -72 26 -67 155 3 92 6 109
22 121 28 20 69 17 97 -5z"/>
<path d="M2939 5921 c-20 -16 -22 -22 -11 -33 11 -11 15 -10 23 5 14 25 69 23
76 -3 6 -22 33 -28 33 -7 0 18 -12 32 -37 46 -31 16 -57 14 -84 -8z"/>
<path d="M2472 5897 c-43 -45 -21 -65 23 -21 24 24 27 25 50 10 13 -9 32 -16
41 -16 15 0 14 4 -6 25 -31 33 -79 33 -108 2z"/>
<path d="M2295 5858 c-25 -14 -35 -28 -35 -50 0 -25 21 -23 27 2 6 24 48 37
67 21 12 -10 26 -6 26 9 0 7 -45 30 -58 30 -4 0 -16 -6 -27 -12z"/>
<path d="M4234 5674 c-22 -33 -9 -78 24 -82 28 -4 28 -15 0 -35 -18 -12 -20
-18 -11 -28 9 -9 19 -5 48 24 30 30 35 42 35 81 0 35 -5 48 -19 56 -32 17 -60
11 -77 -16z"/>
<path d="M3822 5278 c-17 -17 -15 -64 4 -82 33 -34 94 -5 94 45 0 38 -70 65
-98 37z"/>
<path d="M6366 5274 c-21 -21 -20 -57 2 -77 24 -22 55 -21 75 1 34 37 11 92
-38 92 -13 0 -31 -7 -39 -16z"/>
<path d="M3467 5263 c-9 -8 -9 -446 -1 -467 5 -12 20 -16 60 -16 l54 0 0 120
0 119 67 3 c55 2 68 6 71 21 3 15 -5 17 -67 17 l-71 0 0 85 0 85 105 0 c98 0
105 1 105 20 0 19 -7 20 -158 20 -87 0 -162 -3 -165 -7z"/>
<path d="M5640 5025 l0 -245 55 0 55 0 0 74 0 74 73 4 c121 6 189 66 189 168
0 122 -76 170 -269 170 l-103 0 0 -245z m226 182 c23 -20 28 -34 32 -84 8
-111 -28 -163 -113 -163 l-35 0 0 135 0 135 44 0 c33 0 52 -6 72 -23z"/>
<path d="M4135 5131 c-16 -4 -58 -5 -92 -3 l-63 5 0 -161 c0 -88 3 -167 6
-176 5 -12 20 -16 60 -16 l54 0 0 150 c0 137 2 150 19 160 27 14 54 13 77 -4
17 -13 20 -31 24 -158 l5 -143 59 -3 58 -3 -4 140 c-3 122 -6 142 -23 161 -39
44 -118 66 -180 51z"/>
<path d="M4491 5130 c-44 -10 -81 -39 -105 -80 -27 -46 -27 -143 0 -195 34
-65 138 -105 195 -75 16 9 19 7 19 -15 0 -61 -48 -91 -117 -74 -59 15 -67 15
-71 -2 -8 -40 143 -53 212 -19 80 40 96 92 96 317 l0 144 -67 -2 c-38 -2 -81
0 -98 3 -16 3 -45 3 -64 -2z m90 -40 c17 -10 19 -22 19 -133 0 -82 -4 -127
-12 -135 -20 -20 -86 -15 -98 7 -5 11 -10 68 -10 127 0 86 3 111 17 126 18 20
54 23 84 8z"/>
<path d="M4877 5130 c-83 -16 -131 -79 -131 -174 0 -76 24 -128 73 -158 69
-44 258 -24 278 29 12 30 -14 34 -52 9 -30 -21 -50 -26 -96 -26 -69 0 -89 19
-89 87 l0 43 130 0 130 0 0 33 c0 50 -39 118 -80 138 -43 21 -113 29 -163 19z
m102 -47 c12 -11 23 -36 27 -60 l7 -43 -77 0 -76 0 0 31 c0 32 15 69 34 81 20
13 63 8 85 -9z"/>
<path d="M5317 5130 c-16 -5 -34 -14 -41 -20 -10 -8 -15 -7 -20 5 -4 11 -20
15 -56 15 l-50 0 2 -172 3 -173 53 -3 52 -3 0 134 c0 126 1 135 23 155 30 29
77 37 122 22 31 -10 39 -10 46 1 17 27 -81 56 -134 39z"/>
<path d="M6213 5130 c-18 -4 -39 -13 -47 -19 -11 -9 -15 -8 -20 4 -4 11 -20
15 -56 15 l-50 0 2 -172 3 -173 53 -3 52 -3 0 134 c0 131 1 134 26 158 25 24
55 27 147 17 l27 -3 0 -137 c0 -75 3 -143 6 -152 5 -12 20 -16 60 -16 l54 0 0
175 0 175 -60 0 c-33 0 -60 -4 -60 -9 0 -5 -21 -3 -47 5 -25 8 -49 14 -52 13
-3 -1 -21 -5 -38 -9z"/>
<path d="M6680 5131 c-14 -4 -53 -6 -87 -3 l-63 5 0 -177 0 -176 55 0 55 0 0
150 c0 150 0 150 24 161 32 15 72 4 88 -24 7 -13 14 -76 16 -154 l4 -133 54 0
54 0 0 125 c0 142 -12 185 -57 208 -35 18 -110 27 -143 18z"/>
<path d="M7041 5129 c-24 -4 -54 -15 -67 -24 -73 -47 -93 -178 -40 -258 44
-66 153 -95 233 -62 48 20 63 33 56 51 -7 19 -20 18 -50 -6 -18 -14 -41 -20
-74 -20 -69 0 -79 18 -79 146 0 100 1 103 27 124 21 16 37 20 63 16 73 -11 83
-11 87 0 9 25 -91 46 -156 33z"/>
<path d="M7347 5130 c-43 -8 -81 -33 -111 -74 -17 -22 -21 -42 -21 -99 0 -83
21 -130 72 -160 65 -38 205 -31 263 13 20 15 22 21 11 34 -11 14 -16 13 -42
-6 -21 -16 -48 -23 -92 -26 -75 -5 -91 8 -101 81 l-7 47 137 0 137 0 -7 46
c-3 25 -13 58 -23 74 -32 55 -130 87 -216 70z m103 -50 c11 -11 20 -28 20 -37
0 -10 3 -28 6 -40 6 -22 5 -23 -76 -23 -81 0 -82 1 -76 23 3 12 6 30 6 40 0
27 37 57 70 57 17 0 39 -9 50 -20z"/>
<path d="M7680 5129 c-55 -11 -90 -46 -90 -93 0 -47 25 -73 110 -115 41 -20
79 -44 85 -53 29 -50 -61 -76 -133 -39 -22 11 -42 17 -46 14 -16 -16 -2 -36
37 -53 81 -37 196 -18 230 39 40 68 11 114 -109 171 -63 30 -84 45 -84 60 0
38 66 49 148 24 16 -5 22 -2 22 9 0 33 -90 52 -170 36z"/>
<path d="M7980 5129 c-55 -11 -90 -46 -90 -93 0 -47 25 -73 110 -115 41 -20
79 -44 85 -53 29 -50 -61 -76 -133 -39 -22 11 -42 17 -46 14 -16 -16 -2 -36
37 -53 81 -37 196 -18 230 39 40 68 11 114 -109 171 -63 30 -84 45 -84 60 0
38 66 49 148 24 16 -5 22 -2 22 9 0 33 -90 52 -170 36z"/>
<path d="M3812 4958 l3 -173 53 -3 52 -3 0 175 0 176 -55 0 -55 0 2 -172z"/>
</g>
</svg>
